<svg height="464pt" viewBox="0 0 464 464" width="464pt" xmlns="http://www.w3.org/2000/svg"><path d="m272 288h33.472656c-.898437-2.511719-1.472656-5.183594-1.472656-8v-24h-32zm0 0"/><path d="m360 129.0625v-1.0625h-184v256h16v-240l123.414062.054688c6-6.207032 13.914063-10.605469 22.929688-11.894532zm0 0"/><path d="m304 171.753906c0-4.066406.761719-7.96875 1.929688-11.707031l-33.929688-.015625v31.96875h32zm0 0"/><path d="m272 384h64.089844l-2.875-32h-61.214844zm0 0"/><path d="m272 208h32v32h-32zm0 0"/><path d="m208 160.007812h48v31.992188h-48zm0 0"/><path d="m208 256h48v32h-48zm0 0"/><path d="m208 352h48v32h-48zm0 0"/><path d="m208 304h48v32h-48zm0 0"/><path d="m208 208h48v32h-48zm0 0"/><path d="m392 112c22.054688 0 40-17.945312 40-40v-8h-80v8c0 22.054688 17.945312 40 40 40zm0 0"/><path d="m328 304h-56v32h59.785156l-2.882812-32.089844c-.300782.011719-.589844.089844-.902344.089844zm0 0"/><path d="m393.222656 48 5.335938-32h-13.117188l5.335938 32zm0 0"/><path d="m432 40c0-10.929688-7.382812-20.070312-17.398438-22.960938l-5.160156 30.960938h22.558594zm0 0"/><path d="m369.398438 17.039062c-10.015626 2.890626-17.398438 12.03125-17.398438 22.960938v8h22.558594zm0 0"/><path d="m422.097656 144.953125-3.273437-.464844-15.511719 15.511719 9.558594 9.550781zm0 0"/><path d="m361.902344 144.953125 9.226562 24.597656 9.558594-9.550781-15.511719-15.511719zm0 0"/><path d="m408 132.6875v-7.046875c-5.070312 1.519531-10.441406 2.359375-16 2.359375s-10.929688-.839844-16-2.359375v7.046875l16 16zm0 0"/><path d="m64 400h240v16h-240zm0 0"/><path d="m64 432h240v16h-240zm0 0"/><path d="m320 400v48h21.824219l-4.304688-48zm0 0"/><path d="m48 240h112v80h-112zm0 0"/><path d="m344.152344 297.632812 15.152344 166.367188h24.695312v-168h-38.238281c-.523438.566406-1.050781 1.113281-1.609375 1.632812zm0 0"/><path d="m443.398438 148-5.078126-.726562-19.191406 51.167968-27.128906-27.128906-27.128906 27.128906-19.191406-51.167968-5.070313.726562c-11.753906 1.671875-20.609375 11.878906-20.609375 23.753906v108.246094c0 4.414062 3.59375 8 8 8s8-3.585938 8-8v-96h16v96h33.414062c-.855468-2.449219-1.414062-5.039062-1.414062-7.785156v-2.957032c0-5.105468 1.6875-10.167968 4.753906-14.265624l6.398438-8.527344-3.839844-3.832032c-4.648438-4.65625-7.3125-11.089843-7.3125-17.664062 0-13.769531 11.199219-24.96875 24.96875-24.96875 6.101562 0 11.808594 2.265625 16.351562 6.238281l6.679688-8.902343v-13.335938h16v13.335938c0 3.441406-1.136719 6.847656-3.207031 9.601562l-43.242188 57.648438c-1 1.34375-1.550781 3-1.550781 4.671874v2.957032c0 4.289062 3.496094 7.785156 7.785156 7.785156 2.535156 0 4.917969-1.238281 6.375-3.320312l45.503906-65c2.832032-4.0625 4.335938-8.824219 4.335938-13.769532v-26.167968c0-11.863282-8.855469-22.070313-20.601562-23.742188zm0 0"/><path d="m160 336h-128v-112h128v-16h-144v195.054688l38.113281-19.054688h105.886719zm0 0"/><path d="m450.023438 253.335938-10.449219 14.929687 9.113281 9.109375c1.695312 1.695312 3.945312 2.625 6.34375 2.625 4.945312 0 8.96875-4.023438 8.96875-8.96875 0-2.359375-.960938-4.671875-2.625-6.34375zm0 0"/><path d="m437.375 288.6875-7.109375-7.113281-2.992187 4.28125c-4.457032 6.34375-11.738282 10.144531-19.488282 10.144531h-7.785156v168h24.695312l15.335938-168.726562-.015625-4.417969c-.902344-.6875-1.824219-1.351563-2.640625-2.167969zm0 0"/><path d="m208 48h16v32h-16zm0 0"/><path d="m48 443.054688v-38.109376l-38.113281 19.054688zm0 0"/><path d="m240 48h16v32h-16zm0 0"/><path d="m176 48h16v32h-16zm0 0"/><path d="m404.847656 233.535156 10.871094-14.496094-.414062-.414062c-1.6875-1.695312-3.9375-2.625-6.335938-2.625-4.945312 0-8.96875 4.023438-8.96875 8.96875 0 2.359375.960938 4.671875 2.625 6.34375zm0 0"/><path d="m144 48h16v32h-16zm0 0"/><path d="m0 176h160v16h-160zm0 0"/><path d="m160 112h128v-104c0-4.414062-3.59375-8-8-8h-160c-4.40625 0-8 3.585938-8 8v152h48zm-32-80h144v64h-144zm0 0"/></svg>