<svg xmlns="http://www.w3.org/2000/svg" width="70" height="70" viewBox="0 0 70 70" style="width: 100%; height: 100%;"><desc>Made with illustrio</desc>
  
<g class="shadow"><g fill="none" fill-rule="evenodd" stroke="none">
    
    
  </g><g fill="none" transform="translate(17.818 17.818)" stroke="none">
      <rect width="1.273" height="8.909" x="5.091" y="12.727" fill="none" stroke="none"></rect>
      <path d="M26.0909091,8.90909091 C25.739,8.90909091 25.4545455,8.624 25.4545455,8.27272727 L25.4545455,0 L0.636363636,0 C0.285090909,0 0,0.285090909 0,0.636363636 L0,33.7272727 C0,34.0791818 0.285090909,34.3636364 0.636363636,34.3636364 L33.7272727,34.3636364 C34.0791818,34.3636364 34.3636364,34.0791818 34.3636364,33.7272727 L34.3636364,8.90909091 L26.0909091,8.90909091 L26.0909091,8.90909091 Z M30.5454545,18.4545455 C30.5454545,18.8064545 30.261,19.0909091 29.9090909,19.0909091 L24.1964545,19.0909091 C24.1951818,19.4224545 23.9450909,19.7024545 23.6103636,19.7253636 C23.5957273,19.726 23.5804545,19.7266364 23.5664545,19.7266364 C23.2349091,19.7266364 22.9549091,19.4695455 22.932,19.1335455 C22.9173636,18.9101818 22.9090909,18.6836364 22.9090909,18.4545455 C22.9090909,18.1026364 23.1935455,17.8181818 23.5454545,17.8181818 L29.2727273,17.8181818 L29.2727273,14 L19.7272727,14 C19.3753636,14 19.0909091,13.7149091 19.0909091,13.3636364 L19.0909091,6.36363636 L6.36363636,6.36363636 L6.36363636,11.4545455 L7,11.4545455 C7.35127273,11.4545455 7.63636364,11.7396364 7.63636364,12.0909091 L7.63636364,22.2727273 C7.63636364,22.6246364 7.35127273,22.9090909 7,22.9090909 L6.36363636,22.9090909 L6.36363636,29.2727273 L16.5454545,29.2727273 L16.5454545,24.8181818 C16.5454545,24.4662727 16.8305455,24.1818182 17.1818182,24.1818182 C17.5330909,24.1818182 17.8181818,24.4662727 17.8181818,24.8181818 L17.8181818,29.2727273 L29.2727273,29.2727273 L29.2727273,26.0909091 C29.2727273,25.739 29.5571818,25.4545455 29.9090909,25.4545455 C30.261,25.4545455 30.5454545,25.739 30.5454545,26.0909091 L30.5454545,29.9090909 C30.5454545,30.261 30.261,30.5454545 29.9090909,30.5454545 L5.72727273,30.5454545 C5.376,30.5454545 5.09090909,30.261 5.09090909,29.9090909 L5.09090909,22.9090909 L4.45454545,22.9090909 C4.10327273,22.9090909 3.81818182,22.6246364 3.81818182,22.2727273 L3.81818182,12.0909091 C3.81818182,11.7396364 4.10327273,11.4545455 4.45454545,11.4545455 L5.09090909,11.4545455 L5.09090909,5.72727273 C5.09090909,5.376 5.376,5.09090909 5.72727273,5.09090909 L19.7272727,5.09090909 C20.0791818,5.09090909 20.3636364,5.376 20.3636364,5.72727273 L20.3636364,12.7272727 L29.9090909,12.7272727 C30.261,12.7272727 30.5454545,13.0123636 30.5454545,13.3636364 L30.5454545,18.4545455 L30.5454545,18.4545455 Z M27.832,25.7154545 C27.7155455,25.9260909 27.4985455,26.0457273 27.2732727,26.0457273 C27.1701818,26.0457273 27.0651818,26.0202727 26.9678182,25.9674545 C26.7648182,25.8554545 26.565,25.7326364 26.3715455,25.599 C26.082,25.3998182 26.0100909,25.0027273 26.2099091,24.7138182 C26.4097273,24.4236364 26.8068182,24.3523636 27.0950909,24.5521818 C27.2522727,24.661 27.4145455,24.7602727 27.5806364,24.8512727 C27.888,25.0199091 28.0012727,25.4074545 27.832,25.7154545 L27.832,25.7154545 Z M24.9416364,23.2800909 C24.8436364,23.3348182 24.7367273,23.3609091 24.6317273,23.3609091 C24.4083636,23.3609091 24.1926364,23.2431818 24.0755455,23.0350909 C23.9654545,22.8378182 23.8610909,22.6348182 23.7643636,22.4267273 C23.6167273,22.1079091 23.7548182,21.7292727 24.073,21.581 C24.3930909,21.4320909 24.7704545,21.5714545 24.9187273,21.8896364 C25.0020909,22.0690909 25.0911818,22.2440909 25.1866364,22.4133636 C25.3584545,22.7207273 25.2483636,23.1082727 24.9416364,23.2800909 L24.9416364,23.2800909 Z" fill="none" stroke="none"></path>
      <polygon points="26.727 .373 26.727 7.636 33.991 7.636" fill="none" stroke="none"></polygon>
    </g></g><g class="clone"><g fill="none" fill-rule="evenodd" stroke="none" style="stroke-width: 2;" class="main-fill main-stroke">
    
    
  </g><g fill="none" transform="translate(17.818 17.818)" stroke="none" style="stroke-width: 2;" class="main-fill main-stroke">
      <rect width="1.273" height="8.909" x="5.091" y="12.727" fill="none" stroke="none" style="stroke-width: 2;" class="main-fill main-stroke"></rect>
      <path d="M26.0909091,8.90909091 C25.739,8.90909091 25.4545455,8.624 25.4545455,8.27272727 L25.4545455,0 L0.636363636,0 C0.285090909,0 0,0.285090909 0,0.636363636 L0,33.7272727 C0,34.0791818 0.285090909,34.3636364 0.636363636,34.3636364 L33.7272727,34.3636364 C34.0791818,34.3636364 34.3636364,34.0791818 34.3636364,33.7272727 L34.3636364,8.90909091 L26.0909091,8.90909091 L26.0909091,8.90909091 Z M30.5454545,18.4545455 C30.5454545,18.8064545 30.261,19.0909091 29.9090909,19.0909091 L24.1964545,19.0909091 C24.1951818,19.4224545 23.9450909,19.7024545 23.6103636,19.7253636 C23.5957273,19.726 23.5804545,19.7266364 23.5664545,19.7266364 C23.2349091,19.7266364 22.9549091,19.4695455 22.932,19.1335455 C22.9173636,18.9101818 22.9090909,18.6836364 22.9090909,18.4545455 C22.9090909,18.1026364 23.1935455,17.8181818 23.5454545,17.8181818 L29.2727273,17.8181818 L29.2727273,14 L19.7272727,14 C19.3753636,14 19.0909091,13.7149091 19.0909091,13.3636364 L19.0909091,6.36363636 L6.36363636,6.36363636 L6.36363636,11.4545455 L7,11.4545455 C7.35127273,11.4545455 7.63636364,11.7396364 7.63636364,12.0909091 L7.63636364,22.2727273 C7.63636364,22.6246364 7.35127273,22.9090909 7,22.9090909 L6.36363636,22.9090909 L6.36363636,29.2727273 L16.5454545,29.2727273 L16.5454545,24.8181818 C16.5454545,24.4662727 16.8305455,24.1818182 17.1818182,24.1818182 C17.5330909,24.1818182 17.8181818,24.4662727 17.8181818,24.8181818 L17.8181818,29.2727273 L29.2727273,29.2727273 L29.2727273,26.0909091 C29.2727273,25.739 29.5571818,25.4545455 29.9090909,25.4545455 C30.261,25.4545455 30.5454545,25.739 30.5454545,26.0909091 L30.5454545,29.9090909 C30.5454545,30.261 30.261,30.5454545 29.9090909,30.5454545 L5.72727273,30.5454545 C5.376,30.5454545 5.09090909,30.261 5.09090909,29.9090909 L5.09090909,22.9090909 L4.45454545,22.9090909 C4.10327273,22.9090909 3.81818182,22.6246364 3.81818182,22.2727273 L3.81818182,12.0909091 C3.81818182,11.7396364 4.10327273,11.4545455 4.45454545,11.4545455 L5.09090909,11.4545455 L5.09090909,5.72727273 C5.09090909,5.376 5.376,5.09090909 5.72727273,5.09090909 L19.7272727,5.09090909 C20.0791818,5.09090909 20.3636364,5.376 20.3636364,5.72727273 L20.3636364,12.7272727 L29.9090909,12.7272727 C30.261,12.7272727 30.5454545,13.0123636 30.5454545,13.3636364 L30.5454545,18.4545455 L30.5454545,18.4545455 Z M27.832,25.7154545 C27.7155455,25.9260909 27.4985455,26.0457273 27.2732727,26.0457273 C27.1701818,26.0457273 27.0651818,26.0202727 26.9678182,25.9674545 C26.7648182,25.8554545 26.565,25.7326364 26.3715455,25.599 C26.082,25.3998182 26.0100909,25.0027273 26.2099091,24.7138182 C26.4097273,24.4236364 26.8068182,24.3523636 27.0950909,24.5521818 C27.2522727,24.661 27.4145455,24.7602727 27.5806364,24.8512727 C27.888,25.0199091 28.0012727,25.4074545 27.832,25.7154545 L27.832,25.7154545 Z M24.9416364,23.2800909 C24.8436364,23.3348182 24.7367273,23.3609091 24.6317273,23.3609091 C24.4083636,23.3609091 24.1926364,23.2431818 24.0755455,23.0350909 C23.9654545,22.8378182 23.8610909,22.6348182 23.7643636,22.4267273 C23.6167273,22.1079091 23.7548182,21.7292727 24.073,21.581 C24.3930909,21.4320909 24.7704545,21.5714545 24.9187273,21.8896364 C25.0020909,22.0690909 25.0911818,22.2440909 25.1866364,22.4133636 C25.3584545,22.7207273 25.2483636,23.1082727 24.9416364,23.2800909 L24.9416364,23.2800909 Z" fill="none" stroke="none" style="stroke-width: 2;" class="main-fill main-stroke"></path>
      <polygon points="26.727 .373 26.727 7.636 33.991 7.636" fill="none" stroke="none" style="stroke-width: 2;" class="main-fill main-stroke"></polygon>
    </g></g><g class="base"><g fill="none" fill-rule="evenodd" stroke="none" class="secondary-fill">
    
    
  </g><g fill="none" transform="translate(17.818 17.818)" stroke="none" class="secondary-fill">
      <rect width="1.273" height="8.909" x="5.091" y="12.727" fill="none" stroke="none" class="secondary-fill"></rect>
      <path d="M26.0909091,8.90909091 C25.739,8.90909091 25.4545455,8.624 25.4545455,8.27272727 L25.4545455,0 L0.636363636,0 C0.285090909,0 0,0.285090909 0,0.636363636 L0,33.7272727 C0,34.0791818 0.285090909,34.3636364 0.636363636,34.3636364 L33.7272727,34.3636364 C34.0791818,34.3636364 34.3636364,34.0791818 34.3636364,33.7272727 L34.3636364,8.90909091 L26.0909091,8.90909091 L26.0909091,8.90909091 Z M30.5454545,18.4545455 C30.5454545,18.8064545 30.261,19.0909091 29.9090909,19.0909091 L24.1964545,19.0909091 C24.1951818,19.4224545 23.9450909,19.7024545 23.6103636,19.7253636 C23.5957273,19.726 23.5804545,19.7266364 23.5664545,19.7266364 C23.2349091,19.7266364 22.9549091,19.4695455 22.932,19.1335455 C22.9173636,18.9101818 22.9090909,18.6836364 22.9090909,18.4545455 C22.9090909,18.1026364 23.1935455,17.8181818 23.5454545,17.8181818 L29.2727273,17.8181818 L29.2727273,14 L19.7272727,14 C19.3753636,14 19.0909091,13.7149091 19.0909091,13.3636364 L19.0909091,6.36363636 L6.36363636,6.36363636 L6.36363636,11.4545455 L7,11.4545455 C7.35127273,11.4545455 7.63636364,11.7396364 7.63636364,12.0909091 L7.63636364,22.2727273 C7.63636364,22.6246364 7.35127273,22.9090909 7,22.9090909 L6.36363636,22.9090909 L6.36363636,29.2727273 L16.5454545,29.2727273 L16.5454545,24.8181818 C16.5454545,24.4662727 16.8305455,24.1818182 17.1818182,24.1818182 C17.5330909,24.1818182 17.8181818,24.4662727 17.8181818,24.8181818 L17.8181818,29.2727273 L29.2727273,29.2727273 L29.2727273,26.0909091 C29.2727273,25.739 29.5571818,25.4545455 29.9090909,25.4545455 C30.261,25.4545455 30.5454545,25.739 30.5454545,26.0909091 L30.5454545,29.9090909 C30.5454545,30.261 30.261,30.5454545 29.9090909,30.5454545 L5.72727273,30.5454545 C5.376,30.5454545 5.09090909,30.261 5.09090909,29.9090909 L5.09090909,22.9090909 L4.45454545,22.9090909 C4.10327273,22.9090909 3.81818182,22.6246364 3.81818182,22.2727273 L3.81818182,12.0909091 C3.81818182,11.7396364 4.10327273,11.4545455 4.45454545,11.4545455 L5.09090909,11.4545455 L5.09090909,5.72727273 C5.09090909,5.376 5.376,5.09090909 5.72727273,5.09090909 L19.7272727,5.09090909 C20.0791818,5.09090909 20.3636364,5.376 20.3636364,5.72727273 L20.3636364,12.7272727 L29.9090909,12.7272727 C30.261,12.7272727 30.5454545,13.0123636 30.5454545,13.3636364 L30.5454545,18.4545455 L30.5454545,18.4545455 Z M27.832,25.7154545 C27.7155455,25.9260909 27.4985455,26.0457273 27.2732727,26.0457273 C27.1701818,26.0457273 27.0651818,26.0202727 26.9678182,25.9674545 C26.7648182,25.8554545 26.565,25.7326364 26.3715455,25.599 C26.082,25.3998182 26.0100909,25.0027273 26.2099091,24.7138182 C26.4097273,24.4236364 26.8068182,24.3523636 27.0950909,24.5521818 C27.2522727,24.661 27.4145455,24.7602727 27.5806364,24.8512727 C27.888,25.0199091 28.0012727,25.4074545 27.832,25.7154545 L27.832,25.7154545 Z M24.9416364,23.2800909 C24.8436364,23.3348182 24.7367273,23.3609091 24.6317273,23.3609091 C24.4083636,23.3609091 24.1926364,23.2431818 24.0755455,23.0350909 C23.9654545,22.8378182 23.8610909,22.6348182 23.7643636,22.4267273 C23.6167273,22.1079091 23.7548182,21.7292727 24.073,21.581 C24.3930909,21.4320909 24.7704545,21.5714545 24.9187273,21.8896364 C25.0020909,22.0690909 25.0911818,22.2440909 25.1866364,22.4133636 C25.3584545,22.7207273 25.2483636,23.1082727 24.9416364,23.2800909 L24.9416364,23.2800909 Z" fill="none" stroke="none" class="secondary-fill"></path>
      <polygon points="26.727 .373 26.727 7.636 33.991 7.636" fill="none" stroke="none" class="secondary-fill"></polygon>
    </g></g><style>
          .main-fill {fill: #ffffff;}
          .main-stroke {stroke: #ffffff;}
          .secondary-fill {fill: #dd0000;}
          .secondary-stroke {stroke: #dd0000;}

          .main-fill--darken {fill: #d9d9d9;}
          .main-stroke--darken {stroke: #d9d9d9;}
          .secondary-fill--darken {fill: #900000;}
          .secondary-stroke--darken {stroke: #900000;}

          .main-fill--darkener {fill: #bfbfbf;}
          .main-stroke--darkener {stroke: #bfbfbf;}
          .secondary-fill--darkener {fill: #5d0000;}
          .secondary-stroke--darkener {stroke: #5d0000;}
        </style></svg>