<svg xmlns="http://www.w3.org/2000/svg" width="70" height="70" viewBox="0 0 70 70" style="width: 100%; height: 100%;"><desc>Made with illustrio</desc>
  
<g class="shifted" transform="matrix(1,0,0,1,1.5,1.5)"><g fill="none" fill-rule="evenodd" stroke="none" style="fill-opacity: 0.7;" class="secondary-fill">
    
    <path fill="none" d="M17.8029091,29.6806364 L13.7295455,19.0909091 L16.2272727,19.0909091 C16.5791818,19.0909091 16.8636364,18.8064545 16.8636364,18.4545455 C16.8636364,18.1026364 16.5791818,17.8181818 16.2272727,17.8181818 L13.2401818,17.8181818 L11.928,14.4072727 C13.6124545,13.3668182 14.6363636,11.5525455 14.6363636,9.54545455 C14.6363636,6.60290909 12.4046364,4.17390909 9.54545455,3.85572727 L9.54545455,0.636363636 C9.54545455,0.285090909 9.26036364,0 8.90909091,0 C8.55781818,0 8.27272727,0.285090909 8.27272727,0.636363636 L8.27272727,3.85572727 C5.41354545,4.17390909 3.18181818,6.60290909 3.18181818,9.54545455 C3.18181818,11.5309091 4.23690909,13.3852727 5.91245455,14.4193636 L4.60472727,17.8181818 L1.35227273,17.8181818 C1.001,17.8181818 0.715909091,18.1026364 0.715909091,18.4545455 C0.715909091,18.8064545 1.001,19.0909091 1.35227273,19.0909091 L4.11536364,19.0909091 L0.0426363636,29.6806364 C-0.0101818182,29.8187273 -0.0133636364,29.9701818 0.0330909091,30.1108182 L1.30581818,33.929 C1.39872727,34.2064545 1.67045455,34.3878182 1.95936364,34.3623636 C2.25081818,34.3394545 2.48945455,34.1205455 2.53718182,33.8322727 L3.164,30.0713636 L7.11645455,19.0909091 L8.27272727,19.0909091 L8.27272727,19.7272727 C8.27272727,20.0791818 8.55781818,20.3636364 8.90909091,20.3636364 C9.26036364,20.3636364 9.54545455,20.0791818 9.54545455,19.7272727 L9.54545455,19.0909091 L10.7284545,19.0909091 L14.6809091,30.0707273 L15.3077273,33.8316364 C15.3554545,34.1199091 15.5940909,34.3388182 15.8855455,34.3617273 C15.9027273,34.363 15.9199091,34.3636364 15.9364545,34.3636364 C16.2081818,34.3636364 16.4525455,34.1899091 16.5390909,33.9283636 L17.8118182,30.1101818 C17.8589091,29.9701818 17.8557273,29.8180909 17.8029091,29.6806364 L17.8029091,29.6806364 Z M8.90909091,7.63636364 C9.96163636,7.63636364 10.8181818,8.49290909 10.8181818,9.54545455 C10.8181818,10.598 9.96163636,11.4545455 8.90909091,11.4545455 C7.85654545,11.4545455 7,10.598 7,9.54545455 C7,8.49290909 7.85654545,7.63636364 8.90909091,7.63636364 L8.90909091,7.63636364 Z M9.54545455,17.8181818 L9.54545455,17.1818182 C9.54545455,16.8305455 9.26036364,16.5454545 8.90909091,16.5454545 C8.55781818,16.5454545 8.27272727,16.8305455 8.27272727,17.1818182 L8.27272727,17.8181818 L7.574,17.8181818 L8.49672727,15.2555455 C8.78818182,15.2797273 9.05927273,15.2778182 9.34690909,15.2542727 L10.2702727,17.8181818 L9.54545455,17.8181818 L9.54545455,17.8181818 Z" transform="translate(25.455 17.182)" stroke="none" style="fill-opacity: 0.7;" class="secondary-fill"></path>
  </g></g><g class="base"><g fill="none" fill-rule="evenodd" stroke="none" class="main-stroke">
    
    <path fill="none" d="M17.8029091,29.6806364 L13.7295455,19.0909091 L16.2272727,19.0909091 C16.5791818,19.0909091 16.8636364,18.8064545 16.8636364,18.4545455 C16.8636364,18.1026364 16.5791818,17.8181818 16.2272727,17.8181818 L13.2401818,17.8181818 L11.928,14.4072727 C13.6124545,13.3668182 14.6363636,11.5525455 14.6363636,9.54545455 C14.6363636,6.60290909 12.4046364,4.17390909 9.54545455,3.85572727 L9.54545455,0.636363636 C9.54545455,0.285090909 9.26036364,0 8.90909091,0 C8.55781818,0 8.27272727,0.285090909 8.27272727,0.636363636 L8.27272727,3.85572727 C5.41354545,4.17390909 3.18181818,6.60290909 3.18181818,9.54545455 C3.18181818,11.5309091 4.23690909,13.3852727 5.91245455,14.4193636 L4.60472727,17.8181818 L1.35227273,17.8181818 C1.001,17.8181818 0.715909091,18.1026364 0.715909091,18.4545455 C0.715909091,18.8064545 1.001,19.0909091 1.35227273,19.0909091 L4.11536364,19.0909091 L0.0426363636,29.6806364 C-0.0101818182,29.8187273 -0.0133636364,29.9701818 0.0330909091,30.1108182 L1.30581818,33.929 C1.39872727,34.2064545 1.67045455,34.3878182 1.95936364,34.3623636 C2.25081818,34.3394545 2.48945455,34.1205455 2.53718182,33.8322727 L3.164,30.0713636 L7.11645455,19.0909091 L8.27272727,19.0909091 L8.27272727,19.7272727 C8.27272727,20.0791818 8.55781818,20.3636364 8.90909091,20.3636364 C9.26036364,20.3636364 9.54545455,20.0791818 9.54545455,19.7272727 L9.54545455,19.0909091 L10.7284545,19.0909091 L14.6809091,30.0707273 L15.3077273,33.8316364 C15.3554545,34.1199091 15.5940909,34.3388182 15.8855455,34.3617273 C15.9027273,34.363 15.9199091,34.3636364 15.9364545,34.3636364 C16.2081818,34.3636364 16.4525455,34.1899091 16.5390909,33.9283636 L17.8118182,30.1101818 C17.8589091,29.9701818 17.8557273,29.8180909 17.8029091,29.6806364 L17.8029091,29.6806364 Z M8.90909091,7.63636364 C9.96163636,7.63636364 10.8181818,8.49290909 10.8181818,9.54545455 C10.8181818,10.598 9.96163636,11.4545455 8.90909091,11.4545455 C7.85654545,11.4545455 7,10.598 7,9.54545455 C7,8.49290909 7.85654545,7.63636364 8.90909091,7.63636364 L8.90909091,7.63636364 Z M9.54545455,17.8181818 L9.54545455,17.1818182 C9.54545455,16.8305455 9.26036364,16.5454545 8.90909091,16.5454545 C8.55781818,16.5454545 8.27272727,16.8305455 8.27272727,17.1818182 L8.27272727,17.8181818 L7.574,17.8181818 L8.49672727,15.2555455 C8.78818182,15.2797273 9.05927273,15.2778182 9.34690909,15.2542727 L10.2702727,17.8181818 L9.54545455,17.8181818 L9.54545455,17.8181818 Z" transform="translate(25.455 17.182)" stroke="none" class="main-stroke"></path>
  </g></g><style>
          .main-fill {fill: #e41e1b;}
          .main-stroke {stroke: #e41e1b;}
          .secondary-fill {fill: #ffffff;}
          .secondary-stroke {stroke: #ffffff;}

          .main-fill--darken {fill: #a01513;}
          .main-stroke--darken {stroke: #a01513;}
          .secondary-fill--darken {fill: #d9d9d9;}
          .secondary-stroke--darken {stroke: #d9d9d9;}

          .main-fill--darkener {fill: #720f0e;}
          .main-stroke--darkener {stroke: #720f0e;}
          .secondary-fill--darkener {fill: #bfbfbf;}
          .secondary-stroke--darkener {stroke: #bfbfbf;}
        </style></svg>