<svg height="464pt" viewBox="0 0 464 464" width="464pt" xmlns="http://www.w3.org/2000/svg"><path d="m448 448h16v16h-16zm0 0"/><path d="m0 448h16v16h-16zm0 0"/><path d="m80 128h16v16h-16zm0 0"/><path d="m80 208h16v16h-16zm0 0"/><path d="m144 128h16v16h-16zm0 0"/><path d="m176 128h16v16h-16zm0 0"/><path d="m112 208h16v16h-16zm0 0"/><path d="m176 208h16v16h-16zm0 0"/><path d="m144 208h16v16h-16zm0 0"/><path d="m112 128h16v16h-16zm0 0"/><path d="m224 30.335938-128.929688-30.335938h-15.070312v64h144zm0 0"/><path d="m400 128h-96v60.519531l96 21.824219zm0 0"/><path d="m208 128h16v16h-16zm0 0"/><path d="m384 64h-14.878906l-49.121094 14.03125v33.96875h64zm0 0"/><path d="m208 208h16v16h-16zm0 0"/><path d="m208 288h16v16h-16zm0 0"/><path d="m416 230.382812-168.894531-38.382812h-7.105469v256h-16v-128h-192v-48h192v-32h-192v-48h192v-16l25.777344.199219 6.222656 1.417969v-97.617188h-209.953125l-45.816406 161.824219 42.9375 206.175781h-11.167969v16h400v-16h-16zm-352-118.382812h176v48h-176zm128 336h-16v-72c0-4.414062-3.585938-8-8-8h-64c-4.414062 0-8 3.585938-8 8v72h-16v-72c0-13.230469 10.769531-24 24-24h64c13.230469 0 24 10.769531 24 24zm208-32h-144v-48h144zm0-64h-144v-48h144zm0 0"/><path d="m272 384h16v16h-16zm0 0"/><path d="m304 384h16v16h-16zm0 0"/><path d="m368 320h16v16h-16zm0 0"/><path d="m48 208h16v16h-16zm0 0"/><path d="m336 384h16v16h-16zm0 0"/><path d="m304 320h16v16h-16zm0 0"/><path d="m336 320h16v16h-16zm0 0"/><path d="m272 320h16v16h-16zm0 0"/><path d="m80 288h16v16h-16zm0 0"/><path d="m112 288h16v16h-16zm0 0"/><path d="m144 288h16v16h-16zm0 0"/><path d="m368 384h16v16h-16zm0 0"/><path d="m176 288h16v16h-16zm0 0"/><path d="m48 288h16v16h-16zm0 0"/></svg>