<svg height="480pt" viewBox="-8 0 480 480" width="480pt" xmlns="http://www.w3.org/2000/svg"><path d="m224 144v72h-8v64h32.007812l-.007812-64h-8v-72zm0 0"/><path d="m0 464h16v16h-16zm0 0"/><path d="m448 464h16v16h-16zm0 0"/><path d="m392 11.71875v-11.71875h-32v9.960938l-168 48.007812v70.03125h144v192h19.3125l20.6875-20.6875 20.6875 20.6875h19.3125v-192h48v-68.28125zm4.6875 116.28125-20.6875 20.6875-20.6875-20.6875zm-41.375 64 20.6875-20.6875 20.6875 20.6875-20.6875 20.6875zm9.375 32-12.6875 12.6875v-25.375zm-12.6875-51.3125v-25.375l12.6875 12.6875zm-8-92.6875h-136v-9.96875l152-43.421875v21.390625h-16zm8 220.6875v-25.375l12.6875 12.6875zm3.3125-44.6875 20.6875-20.6875 20.6875 20.6875-20.6875 20.6875zm44.6875 44.6875-12.6875-12.6875 12.6875-12.6875zm0-64-12.6875-12.6875 12.6875-12.6875zm0-64-12.6875-12.6875 12.6875-12.6875zm48-92.6875h-40v-32h-16v-17.054688l56 37.335938zm0 0"/><path d="m160 224h40v16h-40zm0 0"/><path d="m160 256h40v16h-40zm0 0"/><path d="m48 48h80v32h-80zm0 0"/><path d="m64 16h48v16h-48zm0 0"/><path d="m299.847656 400h43.503906l-51.199218-64h-43.503906zm0 0"/><path d="m264 256h40v16h-40zm0 0"/><path d="m235.847656 400h43.503906l-51.199218-64h-43.503906zm0 0"/><path d="m32 112h48v48h16v-48h48v48h16v-64h-144v64h16zm0 0"/><path d="m264 224h24v16h-24zm0 0"/><path d="m215.351562 400-51.199218-64h-43.503906l51.199218 64zm0 0"/><path d="m151.351562 400-51.199218-64h-43.503906l51.199218 64zm0 0"/><path d="m144 248v-8h-112v16h112zm0 0"/><path d="m400 416h-16v48h-304v-48h-16v48h-32v16h400v-16h-32zm0 0"/><path d="m48 400h39.351562l-39.351562-49.191406zm0 0"/><path d="m312.648438 336 51.199218 64h43.503906l-51.199218-64zm0 0"/><path d="m416 336h-39.351562l39.351562 49.191406zm0 0"/><path d="m32 320h144v-32h-16v16h-144v-112h144v16h16v-32h-176v224h32zm0 0"/><path d="m48 128h16v32h-16zm0 0"/><path d="m112 128h16v32h-16zm0 0"/><path d="m144 216v-8h-112v16h112zm0 0"/><path d="m32 272h112v16h-112zm0 0"/></svg>