<svg xmlns="http://www.w3.org/2000/svg" width="70" height="70" viewBox="0 0 70 70" style="width: 100%; height: 100%;"><desc>Made with illustrio</desc>
  
<g class="shifted" transform="matrix(1,0,0,1,1.5,1.5)"><g fill="none" fill-rule="evenodd" stroke="none" style="fill-opacity: 0.7;" class="secondary-fill">
    
    
  </g><g fill="none" transform="translate(18.455 25.455)" stroke="none" style="fill-opacity: 0.7;" class="secondary-fill">
      <path d="M32.4545455,17.8181818 L25.4545455,17.8181818 L25.4545455,11.3476364 C26.9423636,10.8455455 28,8.59790909 28,5.72727273 C28,2.46209091 26.6324545,-1.13038919e-15 24.8181818,-1.13038919e-15 C23.0039091,-1.13038919e-15 21.6363636,2.46209091 21.6363636,5.72727273 C21.6363636,8.59790909 22.694,10.8455455 24.1818182,11.3476364 L24.1818182,17.8181818 L17.8181818,17.8181818 L17.8181818,8.53618182 L19.2773636,9.99536364 C19.4014545,10.1194545 19.5643636,10.1818182 19.7272727,10.1818182 C19.8901818,10.1818182 20.0530909,10.1194545 20.1771818,9.99536364 C20.426,9.74654545 20.426,9.34436364 20.1771818,9.09554545 L11.2680909,0.186454545 C11.0192727,-0.0623636364 10.6170909,-0.0623636364 10.3682727,0.186454545 L1.45918182,9.09554545 C1.21036364,9.34436364 1.21036364,9.74654545 1.45918182,9.99536364 C1.58327273,10.1194545 1.74618182,10.1818182 1.90909091,10.1818182 C2.072,10.1818182 2.23490909,10.1194545 2.359,9.99536364 L3.81818182,8.53618182 L3.81818182,17.8181818 L0.636363636,17.8181818 C0.285090909,17.8181818 0,18.1026364 0,18.4545455 C0,18.8064545 0.285090909,19.0909091 0.636363636,19.0909091 L32.4545455,19.0909091 C32.8064545,19.0909091 33.0909091,18.8064545 33.0909091,18.4545455 C33.0909091,18.1026364 32.8064545,17.8181818 32.4545455,17.8181818 L32.4545455,17.8181818 Z M11.4545455,8.27272727 C11.4545455,7.92145455 11.7396364,7.63636364 12.0909091,7.63636364 L14.6363636,7.63636364 C14.9876364,7.63636364 15.2727273,7.92145455 15.2727273,8.27272727 L15.2727273,10.8181818 C15.2727273,11.1700909 14.9876364,11.4545455 14.6363636,11.4545455 L12.0909091,11.4545455 C11.7396364,11.4545455 11.4545455,11.1700909 11.4545455,10.8181818 L11.4545455,8.27272727 L11.4545455,8.27272727 Z M6.36363636,8.27272727 C6.36363636,7.92145455 6.64872727,7.63636364 7,7.63636364 L9.54545455,7.63636364 C9.89672727,7.63636364 10.1818182,7.92145455 10.1818182,8.27272727 L10.1818182,10.8181818 C10.1818182,11.1700909 9.89672727,11.4545455 9.54545455,11.4545455 L7,11.4545455 C6.64872727,11.4545455 6.36363636,11.1700909 6.36363636,10.8181818 L6.36363636,8.27272727 L6.36363636,8.27272727 Z M6.36363636,13.3636364 C6.36363636,13.0117273 6.64872727,12.7272727 7,12.7272727 L9.54545455,12.7272727 C9.89672727,12.7272727 10.1818182,13.0117273 10.1818182,13.3636364 L10.1818182,15.9090909 C10.1818182,16.261 9.89672727,16.5454545 9.54545455,16.5454545 L7,16.5454545 C6.64872727,16.5454545 6.36363636,16.261 6.36363636,15.9090909 L6.36363636,13.3636364 L6.36363636,13.3636364 Z M12.0909091,17.8181818 C11.7396364,17.8181818 11.4545455,17.5337273 11.4545455,17.1818182 L11.4545455,13.3636364 C11.4545455,13.0117273 11.7396364,12.7272727 12.0909091,12.7272727 L14.6363636,12.7272727 C14.9876364,12.7272727 15.2727273,13.0117273 15.2727273,13.3636364 L15.2727273,17.1818182 C15.2727273,17.5337273 14.9876364,17.8181818 14.6363636,17.8181818 L12.0909091,17.8181818 L12.0909091,17.8181818 Z" fill="none" stroke="none" style="fill-opacity: 0.7;" class="secondary-fill"></path>
      <rect width="1.273" height="1.273" x="7.636" y="14" fill="none" stroke="none" style="fill-opacity: 0.7;" class="secondary-fill"></rect>
      <rect width="1.273" height="2.545" x="12.727" y="14" fill="none" stroke="none" style="fill-opacity: 0.7;" class="secondary-fill"></rect>
      <rect width="1.273" height="1.273" x="7.636" y="8.909" fill="none" stroke="none" style="fill-opacity: 0.7;" class="secondary-fill"></rect>
      <rect width="1.273" height="1.273" x="12.727" y="8.909" fill="none" stroke="none" style="fill-opacity: 0.7;" class="secondary-fill"></rect>
    </g></g><g class="base"><g fill="none" fill-rule="evenodd" stroke="none" class="main-stroke">
    
    
  </g><g fill="none" transform="translate(18.455 25.455)" stroke="none" class="main-stroke">
      <path d="M32.4545455,17.8181818 L25.4545455,17.8181818 L25.4545455,11.3476364 C26.9423636,10.8455455 28,8.59790909 28,5.72727273 C28,2.46209091 26.6324545,-1.13038919e-15 24.8181818,-1.13038919e-15 C23.0039091,-1.13038919e-15 21.6363636,2.46209091 21.6363636,5.72727273 C21.6363636,8.59790909 22.694,10.8455455 24.1818182,11.3476364 L24.1818182,17.8181818 L17.8181818,17.8181818 L17.8181818,8.53618182 L19.2773636,9.99536364 C19.4014545,10.1194545 19.5643636,10.1818182 19.7272727,10.1818182 C19.8901818,10.1818182 20.0530909,10.1194545 20.1771818,9.99536364 C20.426,9.74654545 20.426,9.34436364 20.1771818,9.09554545 L11.2680909,0.186454545 C11.0192727,-0.0623636364 10.6170909,-0.0623636364 10.3682727,0.186454545 L1.45918182,9.09554545 C1.21036364,9.34436364 1.21036364,9.74654545 1.45918182,9.99536364 C1.58327273,10.1194545 1.74618182,10.1818182 1.90909091,10.1818182 C2.072,10.1818182 2.23490909,10.1194545 2.359,9.99536364 L3.81818182,8.53618182 L3.81818182,17.8181818 L0.636363636,17.8181818 C0.285090909,17.8181818 0,18.1026364 0,18.4545455 C0,18.8064545 0.285090909,19.0909091 0.636363636,19.0909091 L32.4545455,19.0909091 C32.8064545,19.0909091 33.0909091,18.8064545 33.0909091,18.4545455 C33.0909091,18.1026364 32.8064545,17.8181818 32.4545455,17.8181818 L32.4545455,17.8181818 Z M11.4545455,8.27272727 C11.4545455,7.92145455 11.7396364,7.63636364 12.0909091,7.63636364 L14.6363636,7.63636364 C14.9876364,7.63636364 15.2727273,7.92145455 15.2727273,8.27272727 L15.2727273,10.8181818 C15.2727273,11.1700909 14.9876364,11.4545455 14.6363636,11.4545455 L12.0909091,11.4545455 C11.7396364,11.4545455 11.4545455,11.1700909 11.4545455,10.8181818 L11.4545455,8.27272727 L11.4545455,8.27272727 Z M6.36363636,8.27272727 C6.36363636,7.92145455 6.64872727,7.63636364 7,7.63636364 L9.54545455,7.63636364 C9.89672727,7.63636364 10.1818182,7.92145455 10.1818182,8.27272727 L10.1818182,10.8181818 C10.1818182,11.1700909 9.89672727,11.4545455 9.54545455,11.4545455 L7,11.4545455 C6.64872727,11.4545455 6.36363636,11.1700909 6.36363636,10.8181818 L6.36363636,8.27272727 L6.36363636,8.27272727 Z M6.36363636,13.3636364 C6.36363636,13.0117273 6.64872727,12.7272727 7,12.7272727 L9.54545455,12.7272727 C9.89672727,12.7272727 10.1818182,13.0117273 10.1818182,13.3636364 L10.1818182,15.9090909 C10.1818182,16.261 9.89672727,16.5454545 9.54545455,16.5454545 L7,16.5454545 C6.64872727,16.5454545 6.36363636,16.261 6.36363636,15.9090909 L6.36363636,13.3636364 L6.36363636,13.3636364 Z M12.0909091,17.8181818 C11.7396364,17.8181818 11.4545455,17.5337273 11.4545455,17.1818182 L11.4545455,13.3636364 C11.4545455,13.0117273 11.7396364,12.7272727 12.0909091,12.7272727 L14.6363636,12.7272727 C14.9876364,12.7272727 15.2727273,13.0117273 15.2727273,13.3636364 L15.2727273,17.1818182 C15.2727273,17.5337273 14.9876364,17.8181818 14.6363636,17.8181818 L12.0909091,17.8181818 L12.0909091,17.8181818 Z" fill="none" stroke="none" class="main-stroke"></path>
      <rect width="1.273" height="1.273" x="7.636" y="14" fill="none" stroke="none" class="main-stroke"></rect>
      <rect width="1.273" height="2.545" x="12.727" y="14" fill="none" stroke="none" class="main-stroke"></rect>
      <rect width="1.273" height="1.273" x="7.636" y="8.909" fill="none" stroke="none" class="main-stroke"></rect>
      <rect width="1.273" height="1.273" x="12.727" y="8.909" fill="none" stroke="none" class="main-stroke"></rect>
    </g></g><style>
          .main-fill {fill: #e41e1b;}
          .main-stroke {stroke: #e41e1b;}
          .secondary-fill {fill: #ffffff;}
          .secondary-stroke {stroke: #ffffff;}

          .main-fill--darken {fill: #a01513;}
          .main-stroke--darken {stroke: #a01513;}
          .secondary-fill--darken {fill: #d9d9d9;}
          .secondary-stroke--darken {stroke: #d9d9d9;}

          .main-fill--darkener {fill: #720f0e;}
          .main-stroke--darkener {stroke: #720f0e;}
          .secondary-fill--darkener {fill: #bfbfbf;}
          .secondary-stroke--darkener {stroke: #bfbfbf;}
        </style></svg>