<svg xmlns="http://www.w3.org/2000/svg" width="70" height="70" viewBox="0 0 70 70" style="width: 100%; height: 100%;"><desc>Made with illustrio</desc>
  
<g class="shadow"><g fill="none" fill-rule="evenodd" stroke="none">
    
    
  </g><g fill="none" transform="translate(25.455 17.818)" stroke="none">
      <polygon stroke="none" stroke-width="1.273" points="0 7 0 28.636 2.545 33.727 5.091 28.636 5.091 7" fill="none"></polygon>
      <path stroke="none" stroke-width="1.273" d="M5.09090909,4.45454545 L5.09090909,3.18181818 C5.09090909,1.77609091 3.95118182,0.636363636 2.54545455,0.636363636 C1.13972727,0.636363636 0,1.77609091 0,3.18181818 L0,4.45454545 L5.09090909,4.45454545 L5.09090909,4.45454545 Z" fill="none"></path>
      <path d="M12.7272727,24.1818182 C12.3753636,24.1818182 12.0909091,23.8973636 12.0909091,23.5454545 C12.0909091,23.1935455 12.3753636,22.9090909 12.7272727,22.9090909 L18.4545455,22.9090909 L18.4545455,21.6363636 L14.3181818,21.6363636 C13.9662727,21.6363636 13.6818182,21.3519091 13.6818182,21 C13.6818182,20.6480909 13.9662727,20.3636364 14.3181818,20.3636364 L18.4545455,20.3636364 L18.4545455,19.0909091 L14.3181818,19.0909091 C13.9662727,19.0909091 13.6818182,18.8064545 13.6818182,18.4545455 C13.6818182,18.1026364 13.9662727,17.8181818 14.3181818,17.8181818 L18.4545455,17.8181818 L18.4545455,16.5454545 L14.3181818,16.5454545 C13.9662727,16.5454545 13.6818182,16.2603636 13.6818182,15.9090909 C13.6818182,15.5578182 13.9662727,15.2727273 14.3181818,15.2727273 L18.4545455,15.2727273 L18.4545455,14 L14.3181818,14 C13.9662727,14 13.6818182,13.7149091 13.6818182,13.3636364 C13.6818182,13.0123636 13.9662727,12.7272727 14.3181818,12.7272727 L18.4545455,12.7272727 L18.4545455,11.4545455 L12.7272727,11.4545455 C12.3753636,11.4545455 12.0909091,11.1694545 12.0909091,10.8181818 C12.0909091,10.4669091 12.3753636,10.1818182 12.7272727,10.1818182 L18.4545455,10.1818182 L18.4545455,8.90909091 L14.3181818,8.90909091 C13.9662727,8.90909091 13.6818182,8.624 13.6818182,8.27272727 C13.6818182,7.92145455 13.9662727,7.63636364 14.3181818,7.63636364 L18.4545455,7.63636364 L18.4545455,6.36363636 L14.3181818,6.36363636 C13.9662727,6.36363636 13.6818182,6.07854545 13.6818182,5.72727273 C13.6818182,5.376 13.9662727,5.09090909 14.3181818,5.09090909 L18.4545455,5.09090909 L18.4545455,3.81818182 L14.3181818,3.81818182 C13.9662727,3.81818182 13.6818182,3.53309091 13.6818182,3.18181818 C13.6818182,2.83054545 13.9662727,2.54545455 14.3181818,2.54545455 L18.4545455,2.54545455 L18.4545455,0.636363636 C18.4545455,0.285090909 18.1700909,0 17.8181818,0 L10.1818182,0 C9.82990909,0 9.54545455,0.285090909 9.54545455,0.636363636 L9.54545455,33.7272727 C9.54545455,34.0791818 9.82990909,34.3636364 10.1818182,34.3636364 L17.8181818,34.3636364 C18.1700909,34.3636364 18.4545455,34.0791818 18.4545455,33.7272727 L18.4545455,24.1818182 L12.7272727,24.1818182 L12.7272727,24.1818182 Z M14,30.5454545 C13.6487273,30.5454545 13.3636364,30.2603636 13.3636364,29.9090909 C13.3636364,29.5578182 13.6487273,29.2727273 14,29.2727273 C14.3512727,29.2727273 14.6363636,29.5578182 14.6363636,29.9090909 C14.6363636,30.2603636 14.3512727,30.5454545 14,30.5454545 L14,30.5454545 Z" fill="none" stroke="none"></path>
    </g></g><g class="clone"><g fill="none" fill-rule="evenodd" stroke="none" style="stroke-width: 2;" class="main-fill main-stroke">
    
    
  </g><g fill="none" transform="translate(25.455 17.818)" stroke="none" style="stroke-width: 2;" class="main-fill main-stroke">
      <polygon stroke="none" stroke-width="1.273" points="0 7 0 28.636 2.545 33.727 5.091 28.636 5.091 7" fill="none" style="stroke-width: 2;" class="main-fill main-stroke"></polygon>
      <path stroke="none" stroke-width="1.273" d="M5.09090909,4.45454545 L5.09090909,3.18181818 C5.09090909,1.77609091 3.95118182,0.636363636 2.54545455,0.636363636 C1.13972727,0.636363636 0,1.77609091 0,3.18181818 L0,4.45454545 L5.09090909,4.45454545 L5.09090909,4.45454545 Z" fill="none" style="stroke-width: 2;" class="main-fill main-stroke"></path>
      <path d="M12.7272727,24.1818182 C12.3753636,24.1818182 12.0909091,23.8973636 12.0909091,23.5454545 C12.0909091,23.1935455 12.3753636,22.9090909 12.7272727,22.9090909 L18.4545455,22.9090909 L18.4545455,21.6363636 L14.3181818,21.6363636 C13.9662727,21.6363636 13.6818182,21.3519091 13.6818182,21 C13.6818182,20.6480909 13.9662727,20.3636364 14.3181818,20.3636364 L18.4545455,20.3636364 L18.4545455,19.0909091 L14.3181818,19.0909091 C13.9662727,19.0909091 13.6818182,18.8064545 13.6818182,18.4545455 C13.6818182,18.1026364 13.9662727,17.8181818 14.3181818,17.8181818 L18.4545455,17.8181818 L18.4545455,16.5454545 L14.3181818,16.5454545 C13.9662727,16.5454545 13.6818182,16.2603636 13.6818182,15.9090909 C13.6818182,15.5578182 13.9662727,15.2727273 14.3181818,15.2727273 L18.4545455,15.2727273 L18.4545455,14 L14.3181818,14 C13.9662727,14 13.6818182,13.7149091 13.6818182,13.3636364 C13.6818182,13.0123636 13.9662727,12.7272727 14.3181818,12.7272727 L18.4545455,12.7272727 L18.4545455,11.4545455 L12.7272727,11.4545455 C12.3753636,11.4545455 12.0909091,11.1694545 12.0909091,10.8181818 C12.0909091,10.4669091 12.3753636,10.1818182 12.7272727,10.1818182 L18.4545455,10.1818182 L18.4545455,8.90909091 L14.3181818,8.90909091 C13.9662727,8.90909091 13.6818182,8.624 13.6818182,8.27272727 C13.6818182,7.92145455 13.9662727,7.63636364 14.3181818,7.63636364 L18.4545455,7.63636364 L18.4545455,6.36363636 L14.3181818,6.36363636 C13.9662727,6.36363636 13.6818182,6.07854545 13.6818182,5.72727273 C13.6818182,5.376 13.9662727,5.09090909 14.3181818,5.09090909 L18.4545455,5.09090909 L18.4545455,3.81818182 L14.3181818,3.81818182 C13.9662727,3.81818182 13.6818182,3.53309091 13.6818182,3.18181818 C13.6818182,2.83054545 13.9662727,2.54545455 14.3181818,2.54545455 L18.4545455,2.54545455 L18.4545455,0.636363636 C18.4545455,0.285090909 18.1700909,0 17.8181818,0 L10.1818182,0 C9.82990909,0 9.54545455,0.285090909 9.54545455,0.636363636 L9.54545455,33.7272727 C9.54545455,34.0791818 9.82990909,34.3636364 10.1818182,34.3636364 L17.8181818,34.3636364 C18.1700909,34.3636364 18.4545455,34.0791818 18.4545455,33.7272727 L18.4545455,24.1818182 L12.7272727,24.1818182 L12.7272727,24.1818182 Z M14,30.5454545 C13.6487273,30.5454545 13.3636364,30.2603636 13.3636364,29.9090909 C13.3636364,29.5578182 13.6487273,29.2727273 14,29.2727273 C14.3512727,29.2727273 14.6363636,29.5578182 14.6363636,29.9090909 C14.6363636,30.2603636 14.3512727,30.5454545 14,30.5454545 L14,30.5454545 Z" fill="none" stroke="none" style="stroke-width: 2;" class="main-fill main-stroke"></path>
    </g></g><g class="base"><g fill="none" fill-rule="evenodd" stroke="none" class="secondary-fill">
    
    
  </g><g fill="none" transform="translate(25.455 17.818)" stroke="none" class="secondary-fill">
      <polygon stroke="none" stroke-width="1.273" points="0 7 0 28.636 2.545 33.727 5.091 28.636 5.091 7" fill="none" class="secondary-fill"></polygon>
      <path stroke="none" stroke-width="1.273" d="M5.09090909,4.45454545 L5.09090909,3.18181818 C5.09090909,1.77609091 3.95118182,0.636363636 2.54545455,0.636363636 C1.13972727,0.636363636 0,1.77609091 0,3.18181818 L0,4.45454545 L5.09090909,4.45454545 L5.09090909,4.45454545 Z" fill="none" class="secondary-fill"></path>
      <path d="M12.7272727,24.1818182 C12.3753636,24.1818182 12.0909091,23.8973636 12.0909091,23.5454545 C12.0909091,23.1935455 12.3753636,22.9090909 12.7272727,22.9090909 L18.4545455,22.9090909 L18.4545455,21.6363636 L14.3181818,21.6363636 C13.9662727,21.6363636 13.6818182,21.3519091 13.6818182,21 C13.6818182,20.6480909 13.9662727,20.3636364 14.3181818,20.3636364 L18.4545455,20.3636364 L18.4545455,19.0909091 L14.3181818,19.0909091 C13.9662727,19.0909091 13.6818182,18.8064545 13.6818182,18.4545455 C13.6818182,18.1026364 13.9662727,17.8181818 14.3181818,17.8181818 L18.4545455,17.8181818 L18.4545455,16.5454545 L14.3181818,16.5454545 C13.9662727,16.5454545 13.6818182,16.2603636 13.6818182,15.9090909 C13.6818182,15.5578182 13.9662727,15.2727273 14.3181818,15.2727273 L18.4545455,15.2727273 L18.4545455,14 L14.3181818,14 C13.9662727,14 13.6818182,13.7149091 13.6818182,13.3636364 C13.6818182,13.0123636 13.9662727,12.7272727 14.3181818,12.7272727 L18.4545455,12.7272727 L18.4545455,11.4545455 L12.7272727,11.4545455 C12.3753636,11.4545455 12.0909091,11.1694545 12.0909091,10.8181818 C12.0909091,10.4669091 12.3753636,10.1818182 12.7272727,10.1818182 L18.4545455,10.1818182 L18.4545455,8.90909091 L14.3181818,8.90909091 C13.9662727,8.90909091 13.6818182,8.624 13.6818182,8.27272727 C13.6818182,7.92145455 13.9662727,7.63636364 14.3181818,7.63636364 L18.4545455,7.63636364 L18.4545455,6.36363636 L14.3181818,6.36363636 C13.9662727,6.36363636 13.6818182,6.07854545 13.6818182,5.72727273 C13.6818182,5.376 13.9662727,5.09090909 14.3181818,5.09090909 L18.4545455,5.09090909 L18.4545455,3.81818182 L14.3181818,3.81818182 C13.9662727,3.81818182 13.6818182,3.53309091 13.6818182,3.18181818 C13.6818182,2.83054545 13.9662727,2.54545455 14.3181818,2.54545455 L18.4545455,2.54545455 L18.4545455,0.636363636 C18.4545455,0.285090909 18.1700909,0 17.8181818,0 L10.1818182,0 C9.82990909,0 9.54545455,0.285090909 9.54545455,0.636363636 L9.54545455,33.7272727 C9.54545455,34.0791818 9.82990909,34.3636364 10.1818182,34.3636364 L17.8181818,34.3636364 C18.1700909,34.3636364 18.4545455,34.0791818 18.4545455,33.7272727 L18.4545455,24.1818182 L12.7272727,24.1818182 L12.7272727,24.1818182 Z M14,30.5454545 C13.6487273,30.5454545 13.3636364,30.2603636 13.3636364,29.9090909 C13.3636364,29.5578182 13.6487273,29.2727273 14,29.2727273 C14.3512727,29.2727273 14.6363636,29.5578182 14.6363636,29.9090909 C14.6363636,30.2603636 14.3512727,30.5454545 14,30.5454545 L14,30.5454545 Z" fill="none" stroke="none" class="secondary-fill"></path>
    </g></g><style>
          .main-fill {fill: #ffffff;}
          .main-stroke {stroke: #ffffff;}
          .secondary-fill {fill: #dd0000;}
          .secondary-stroke {stroke: #dd0000;}

          .main-fill--darken {fill: #d9d9d9;}
          .main-stroke--darken {stroke: #d9d9d9;}
          .secondary-fill--darken {fill: #900000;}
          .secondary-stroke--darken {stroke: #900000;}

          .main-fill--darkener {fill: #bfbfbf;}
          .main-stroke--darkener {stroke: #bfbfbf;}
          .secondary-fill--darkener {fill: #5d0000;}
          .secondary-stroke--darkener {stroke: #5d0000;}
        </style></svg>